<svg width="71" height="51" viewBox="0 0 71 51" fill="none" xmlns="http://www.w3.org/2000/svg">
<path d="M0 4C0 1.79086 1.79086 0 4 0H28C30.2091 0 32 1.79086 32 4V8C32 21.2548 21.2548 32 8 32H4C1.79086 32 0 30.2091 0 28V4Z" fill="#F2994A"/>
<path d="M4 8C4 5.79086 5.79086 4 8 4H32C34.2091 4 36 5.79086 36 8V12C36 25.2548 25.2548 36 12 36H8C5.79086 36 4 34.2091 4 32V8Z" fill="#FFE351"/>
<path d="M26.768 7.608C23 7.776 19.904 8.664 16.64 10.632C15.512 11.328 14.384 12.024 13.4 12.912C13.16 13.128 12.824 13.416 12.824 13.728C12.824 13.824 12.848 13.92 12.896 14.016C12.992 14.208 13.16 14.28 13.352 14.28C13.76 14.28 14.288 13.944 14.528 13.824C15.2 13.464 14.528 13.128 15.344 12.528C18.92 9.984 22.736 8.52 27.2 8.52H27.248C29.864 8.52 32 10.152 32.864 12.648C33.344 14.088 33.584 15.768 33.584 17.472C33.584 19.2 33.344 20.952 32.864 22.416C31.976 25.176 30.656 27.72 29.024 30.12C26.744 33.48 23.888 36.264 20.744 38.808C18.416 40.68 15.776 41.904 12.872 42.624C12.2 42.792 11.528 42.888 10.832 42.888C8.528 42.888 6.368 41.856 5.96 39.216C5.888 38.736 5.84 38.256 5.84 37.776C5.84 36.624 6.08 35.496 6.584 34.416C8.72 29.904 12.584 26.928 16.64 24.264C16.688 24.24 16.736 24.216 16.88 24.168C15.752 26.904 11.6 36.792 11.6 39.504V39.6C11.6 39.72 11.696 39.816 11.816 39.816C11.912 39.816 12.032 39.72 12.056 39.456C12.512 35.88 16.904 26.328 18.632 23.208C18.728 23.04 18.824 22.872 19.016 22.776C20.36 21.984 21.704 21.168 23.216 20.736C23.408 20.688 23.504 20.592 23.504 20.544C23.504 20.472 23.408 20.4 23.312 20.4C23.288 20.4 23.264 20.424 23.24 20.424C21.8 20.784 20.912 21.264 19.592 21.984C19.52 22.008 19.472 22.08 19.376 22.08C19.352 22.08 19.328 22.08 19.28 22.056C19.376 21.912 19.424 21.792 19.496 21.648L24.248 13.608C24.416 13.32 24.752 12.792 24.752 12.408C24.752 12.264 24.704 12.144 24.584 12.072C24.512 12.024 24.464 12.024 24.392 12.024C24.032 12.024 23.672 12.552 23.432 12.864C21.224 15.744 19.4 18.888 17.792 22.152C17.6 22.56 17.456 23.04 17.192 23.352C16.88 23.688 16.448 23.856 16.064 24.096C11.864 26.76 8.264 29.64 6.008 34.224C5.456 35.328 5.216 36.48 5.216 37.632C5.216 38.4 5.312 39.168 5.528 39.96C5.936 41.544 6.944 42.6 8.504 43.104C9.224 43.344 9.968 43.464 10.736 43.464C11.12 43.464 11.504 43.44 11.888 43.368C16.712 42.576 20.192 40.176 23.72 36.984C27.2 33.816 30.08 30.192 32.192 25.968C33.56 23.208 34.352 20.376 34.352 17.352C34.352 16.92 34.328 16.488 34.304 16.056C34.208 14.736 33.992 13.44 33.536 12.192C32.528 9.288 29.504 7.608 27.032 7.608H26.768ZM34.5944 33.552C37.0664 33.432 42.0104 30.528 43.7384 29.016C43.8104 28.944 43.8344 28.896 43.8344 28.872C43.8344 28.824 43.8104 28.8 43.7864 28.8C43.7384 28.8 43.6904 28.824 43.6424 28.872C41.7944 30.288 37.9544 32.376 35.6024 32.952C35.3144 33.024 35.0504 33.048 34.7864 33.048C33.8024 33.048 33.2504 32.52 33.2504 31.752C33.2504 31.368 33.3704 30.936 33.6584 30.504C33.8264 30.552 33.9704 30.576 34.1144 30.576C34.3544 30.576 34.5944 30.504 34.8104 30.384C35.5304 29.976 36.2744 29.568 36.9464 29.112C37.2824 28.896 37.5224 28.536 37.7624 28.2C37.9064 28.008 37.9784 27.768 37.9784 27.528C37.9784 27.12 37.7144 26.76 37.2104 26.76C37.0184 26.76 36.8024 26.784 36.5624 26.904C34.8344 27.624 33.6104 28.848 32.9144 30.552C32.7704 30.888 32.6984 31.272 32.6984 31.656C32.6984 32.616 33.2024 33.552 34.4504 33.552H34.5944ZM36.7544 27.696C36.6344 28.296 35.0984 29.52 34.0664 29.832C34.8344 28.872 35.6024 28.056 36.7544 27.696ZM43.913 39.864C46.529 38.832 48.881 36.264 49.913 33.648C50.153 33.024 50.225 32.52 50.225 32.136C50.225 31.44 50.009 31.056 50.009 30.912C50.009 30.864 50.009 30.84 50.057 30.816C51.569 30.168 55.697 29.256 57.185 29.016C57.449 28.968 57.545 28.92 57.545 28.872C57.545 28.824 57.449 28.8 57.281 28.8C57.185 28.8 57.089 28.8 56.969 28.824C55.265 29.04 51.329 29.88 49.721 30.456C49.337 29.784 48.113 29.76 46.889 29.664C45.689 29.544 44.489 29.352 44.441 28.776V28.728C44.441 27.432 47.801 25.032 49.121 25.032C49.361 25.032 49.529 25.104 49.601 25.272C49.817 25.704 50.033 25.848 50.249 25.848C50.633 25.848 50.921 25.248 50.921 24.888C50.921 24.816 50.921 24.768 50.897 24.72C50.753 24.24 50.153 23.784 49.649 23.712C49.601 23.712 49.529 23.688 49.457 23.688C47.777 23.688 43.601 26.856 43.601 28.824C43.601 28.92 43.625 29.04 43.649 29.136C44.105 30.744 48.905 30.24 49.097 30.696C46.193 31.728 42.785 33.648 41.129 36.48C40.673 37.248 40.457 37.968 40.457 38.544C40.457 39.576 41.129 40.224 42.257 40.224C42.737 40.224 43.289 40.104 43.913 39.864ZM41.489 36.648C42.905 34.224 46.865 31.944 49.409 31.128C49.601 31.44 49.673 31.752 49.673 32.064C49.673 32.28 49.649 32.52 49.577 32.736C48.785 35.448 46.193 38.448 43.553 39.432C43.049 39.624 42.569 39.72 42.185 39.72C41.369 39.72 40.841 39.312 40.841 38.52C40.841 38.04 41.033 37.416 41.489 36.648ZM54.1696 38.4C54.2896 38.136 54.3136 37.824 54.4336 37.536C55.1056 35.976 55.6096 34.776 56.3056 33.288C56.6656 32.52 57.2176 32.64 58.5136 32.376C62.5696 31.584 66.6016 30.312 70.4896 29.112C70.8256 29.016 70.9456 28.92 70.9456 28.872C70.9216 28.824 70.8256 28.8 70.7056 28.8C70.6336 28.8 70.5136 28.824 70.4176 28.848C67.2016 29.88 60.5776 31.68 57.5056 32.016H57.4576C57.2656 32.016 57.1696 31.92 57.1696 31.776C57.1696 31.608 57.3136 31.32 57.5776 31.008C58.7776 29.568 63.5776 25.368 65.3296 24.864C65.3536 24.864 65.4016 24.84 65.4256 24.84C65.7136 24.84 65.9056 25.224 66.2416 25.224C66.3136 25.224 66.3616 25.224 66.4336 25.2C66.6256 25.128 66.7216 24.96 66.7216 24.768C66.7216 24.48 66.5056 24.168 66.1216 24.12C66.0256 24.096 65.9296 24.096 65.8336 24.096C63.3856 24.096 59.0656 28.656 57.7936 29.976C58.8016 27.312 63.5776 18.312 65.0656 16.2C65.1856 16.008 65.7136 15.816 65.9056 15.672C66.3856 15.312 66.4816 15.216 66.7216 14.664C66.7696 14.544 66.7936 14.424 66.7936 14.304C66.7936 13.968 66.5536 13.728 66.2176 13.728C65.9776 13.728 65.6896 13.848 65.4016 14.112C63.4336 16.44 59.2096 24.144 56.7616 30C55.7536 32.376 54.6976 35.136 53.8096 37.56C53.7376 37.776 53.6656 38.016 53.6656 38.256V38.304C53.6656 38.424 53.7616 38.544 53.8096 38.664C53.9296 38.568 54.1216 38.52 54.1696 38.4Z" fill="#000B70"/>
<path d="M26.768 7.608V7.108H26.7569L26.7457 7.10849L26.768 7.608ZM16.64 10.632L16.3818 10.2038L16.3774 10.2065L16.64 10.632ZM13.4 12.912L13.7345 13.2836L13.735 13.2832L13.4 12.912ZM12.896 14.016L13.3432 13.7924L13.3432 13.7924L12.896 14.016ZM14.528 13.824L14.7517 14.2714L14.7641 14.2647L14.528 13.824ZM15.344 12.528L15.0541 12.1205L15.0478 12.1252L15.344 12.528ZM32.864 12.648L33.3384 12.4899L33.3365 12.4844L32.864 12.648ZM32.864 22.416L32.3889 22.2602L32.388 22.2629L32.864 22.416ZM29.024 30.12L28.6105 29.8388L28.6103 29.8392L29.024 30.12ZM20.744 38.808L21.0573 39.1977L21.0585 39.1967L20.744 38.808ZM12.872 42.624L12.7517 42.1387L12.7507 42.1389L12.872 42.624ZM5.96 39.216L5.46553 39.2902L5.46587 39.2924L5.96 39.216ZM6.584 34.416L6.13208 34.2021L6.13091 34.2046L6.584 34.416ZM16.64 24.264L16.4164 23.8168L16.3901 23.8299L16.3655 23.8461L16.64 24.264ZM16.88 24.168L17.3423 24.3586L17.7589 23.348L16.7219 23.6937L16.88 24.168ZM12.056 39.456L11.56 39.3928L11.5589 39.4017L11.5581 39.4107L12.056 39.456ZM18.632 23.208L18.1978 22.9599L18.1946 22.9657L18.632 23.208ZM19.016 22.776L19.2396 23.2232L19.255 23.2155L19.2698 23.2068L19.016 22.776ZM23.216 20.736L23.0947 20.2509L23.0867 20.2529L23.0786 20.2552L23.216 20.736ZM23.24 20.424V19.924H23.1784L23.1187 19.9389L23.24 20.424ZM19.592 21.984L19.7501 22.4583L19.7923 22.4443L19.8314 22.4229L19.592 21.984ZM19.28 22.056L18.864 21.7786L18.5498 22.2499L19.0564 22.5032L19.28 22.056ZM19.496 21.648L19.0656 21.3936L19.0566 21.4087L19.0488 21.4244L19.496 21.648ZM24.248 13.608L24.6784 13.8624L24.6799 13.8599L24.248 13.608ZM24.584 12.072L24.3066 12.488L24.3165 12.4946L24.3268 12.5007L24.584 12.072ZM23.432 12.864L23.0357 12.5591L23.0352 12.5598L23.432 12.864ZM17.792 22.152L17.3434 21.931L17.3396 21.9391L17.792 22.152ZM17.192 23.352L17.5584 23.6922L17.5662 23.6838L17.5737 23.675L17.192 23.352ZM16.064 24.096L15.799 23.672L15.7962 23.6738L16.064 24.096ZM6.008 34.224L6.45522 34.4476L6.45661 34.4448L6.008 34.224ZM5.528 39.96L6.01224 39.8353L6.01038 39.8284L5.528 39.96ZM8.504 43.104L8.66212 42.6296L8.65772 42.6282L8.504 43.104ZM11.888 43.368L11.807 42.8745L11.7959 42.8766L11.888 43.368ZM23.72 36.984L24.0555 37.3548L24.0566 37.3537L23.72 36.984ZM32.192 25.968L32.6392 26.1916L32.64 26.19L32.192 25.968ZM34.304 16.056L34.8033 16.0283L34.8027 16.0197L34.304 16.056ZM33.536 12.192L33.0636 12.356L33.0664 12.3636L33.536 12.192ZM26.7457 7.10849C22.8985 7.28003 19.7207 8.19064 16.3818 10.2038L16.8982 11.0602C20.0873 9.13736 23.1015 8.27197 26.7903 8.1075L26.7457 7.10849ZM16.3774 10.2065C15.256 10.8984 14.0884 11.6173 13.065 12.5408L13.735 13.2832C14.6796 12.4307 15.768 11.7576 16.9026 11.0575L16.3774 10.2065ZM13.0655 12.5404C12.9562 12.6388 12.7795 12.7925 12.6365 12.9656C12.4987 13.1324 12.324 13.3959 12.324 13.728H13.324C13.324 13.7481 13.3173 13.7116 13.4075 13.6024C13.4925 13.4995 13.6038 13.4012 13.7345 13.2836L13.0655 12.5404ZM12.324 13.728C12.324 13.9104 12.3702 14.0825 12.4488 14.2396L13.3432 13.7924C13.3258 13.7575 13.324 13.7376 13.324 13.728H12.324ZM12.4488 14.2396C12.6494 14.6408 13.0196 14.78 13.352 14.78V13.78C13.3349 13.78 13.325 13.7784 13.3208 13.7775C13.317 13.7766 13.3193 13.7767 13.3251 13.7798C13.3279 13.7813 13.331 13.7832 13.3342 13.7857C13.3374 13.7881 13.3401 13.7906 13.3422 13.7928C13.3469 13.7977 13.3465 13.7989 13.3432 13.7924L12.4488 14.2396ZM13.352 14.78C13.6715 14.78 13.9894 14.6547 14.2137 14.5504C14.3338 14.4946 14.4453 14.4358 14.5379 14.3859C14.6379 14.3319 14.7009 14.2966 14.7516 14.2712L14.3044 13.3768C14.2351 13.4114 14.1421 13.4631 14.0629 13.5059C13.9762 13.5527 13.8852 13.6004 13.7923 13.6436C13.5906 13.7373 13.4405 13.78 13.352 13.78V14.78ZM14.7641 14.2647C14.9919 14.1427 15.17 13.9874 15.2744 13.7717C15.3674 13.5793 15.374 13.3782 15.3801 13.3099C15.3877 13.2233 15.3951 13.1935 15.4117 13.161C15.4295 13.1264 15.4802 13.0485 15.6402 12.9308L15.0478 12.1252C14.7998 12.3075 14.6285 12.4966 14.5218 12.705C14.4139 12.9155 14.3943 13.1047 14.3839 13.2221C14.372 13.3578 14.3696 13.3457 14.3741 13.3363C14.39 13.3035 14.4001 13.3253 14.2919 13.3833L14.7641 14.2647ZM15.6338 12.9354C19.1411 10.4403 22.8578 9.02 27.2 9.02V8.02C22.6142 8.02 18.6989 9.52766 15.0542 12.1206L15.6338 12.9354ZM27.2 9.02H27.248V8.02H27.2V9.02ZM27.248 9.02C29.6346 9.02 31.5917 10.501 32.3915 12.8116L33.3365 12.4844C32.4083 9.80295 30.0934 8.02 27.248 8.02V9.02ZM32.3897 12.8061C32.8497 14.1864 33.084 15.8116 33.084 17.472H34.084C34.084 15.7244 33.8383 13.9896 33.3383 12.4899L32.3897 12.8061ZM33.084 17.472C33.084 19.1584 32.8492 20.8563 32.3889 22.2602L33.3391 22.5718C33.8388 21.0477 34.084 19.2416 34.084 17.472H33.084ZM32.388 22.2629C31.5171 24.9699 30.2205 27.4712 28.6105 29.8388L29.4375 30.4012C31.0915 27.9688 32.4349 25.3821 33.34 22.5691L32.388 22.2629ZM28.6103 29.8392C26.3672 33.1448 23.5508 35.8936 20.4295 38.4193L21.0585 39.1967C24.2252 36.6344 27.1208 33.8152 29.4377 30.4008L28.6103 29.8392ZM20.4307 38.4184C18.166 40.2394 15.5941 41.434 12.7517 42.1387L12.9923 43.1093C15.9579 42.374 18.666 41.1206 21.0573 39.1977L20.4307 38.4184ZM12.7507 42.1389C12.112 42.2986 11.481 42.388 10.832 42.388V43.388C11.575 43.388 12.288 43.2854 12.9933 43.1091L12.7507 42.1389ZM10.832 42.388C9.74819 42.388 8.73741 42.1444 7.963 41.6264C7.20247 41.1177 6.63715 40.3238 6.45413 39.1396L5.46587 39.2924C5.69085 40.7482 6.40953 41.7903 7.407 42.4576C8.39059 43.1156 9.61181 43.388 10.832 43.388V42.388ZM6.45447 39.1418C6.38477 38.6772 6.34 38.2233 6.34 37.776H5.34C5.34 38.2887 5.39123 38.7948 5.46553 39.2902L6.45447 39.1418ZM6.34 37.776C6.34 36.6954 6.5647 35.6397 7.03709 34.6274L6.13091 34.2046C5.5953 35.3523 5.34 36.5526 5.34 37.776H6.34ZM7.03592 34.6299C9.10855 30.2518 12.8681 27.3396 16.9145 24.6819L16.3655 23.8461C12.2999 26.5164 8.33145 29.5562 6.13208 34.2021L7.03592 34.6299ZM16.8636 24.7112C16.8857 24.7002 16.897 24.6946 16.9163 24.6865C16.9377 24.6776 16.9736 24.6639 17.0381 24.6423L16.7219 23.6937C16.5541 23.7496 16.4843 23.7828 16.4164 23.8168L16.8636 24.7112ZM16.4177 23.9774C15.855 25.3425 14.5312 28.5073 13.3487 31.6699C12.7575 33.2508 12.199 34.8381 11.7876 36.2042C11.3825 37.5494 11.1 38.7424 11.1 39.504H12.1C12.1 38.9096 12.3365 37.8496 12.7451 36.4925C13.1475 35.1564 13.6975 33.5922 14.2853 32.0201C15.4608 28.8767 16.7771 25.7295 17.3423 24.3586L16.4177 23.9774ZM11.1 39.504V39.6H12.1V39.504H11.1ZM11.1 39.6C11.1 39.9961 11.4199 40.316 11.816 40.316V39.316C11.9721 39.316 12.1 39.4439 12.1 39.6H11.1ZM11.816 40.316C12.3036 40.316 12.5209 39.8644 12.5539 39.5013L11.5581 39.4107C11.5519 39.4782 11.5382 39.4661 11.5706 39.4252C11.6061 39.3801 11.6893 39.316 11.816 39.316V40.316ZM12.552 39.5192C12.659 38.6798 13.0041 37.4534 13.5052 36.0115C14.0031 34.5785 14.6443 32.9628 15.3271 31.3566C16.6941 28.1412 18.2166 24.9901 19.0694 23.4502L18.1946 22.9657C17.3194 24.5459 15.7819 27.7308 14.4069 30.9654C13.7187 32.5842 13.0684 34.222 12.5606 35.6833C12.0559 37.1356 11.681 38.4442 11.56 39.3928L12.552 39.5192ZM19.0661 23.4561C19.1717 23.2712 19.2022 23.2419 19.2396 23.2232L18.7924 22.3288C18.4458 22.5021 18.2843 22.8088 18.1979 22.9599L19.0661 23.4561ZM19.2698 23.2068C20.6292 22.4057 21.9151 21.6277 23.3534 21.2168L23.0786 20.2552C21.4929 20.7083 20.0908 21.5623 18.7622 22.3452L19.2698 23.2068ZM23.3373 21.2211C23.488 21.1834 23.6231 21.1217 23.732 21.04C23.7857 20.9998 23.8424 20.9476 23.8904 20.8816C23.9301 20.8269 24.004 20.7081 24.004 20.544H23.004C23.004 20.4687 23.0222 20.4101 23.0369 20.3743C23.0521 20.3372 23.0694 20.3102 23.0816 20.2934C23.1056 20.2604 23.1263 20.2442 23.132 20.24C23.1449 20.2303 23.136 20.2406 23.0947 20.2509L23.3373 21.2211ZM24.004 20.544C24.004 20.2879 23.8454 20.1211 23.744 20.045C23.63 19.9595 23.4784 19.9 23.312 19.9V20.9C23.2416 20.9 23.186 20.8765 23.144 20.845C23.1146 20.8229 23.004 20.7281 23.004 20.544H24.004ZM23.312 19.9C23.2241 19.9 23.1555 19.9217 23.1184 19.9356C23.0989 19.9429 23.083 19.9501 23.0728 19.9549C23.0631 19.9594 23.0544 19.9638 23.0524 19.9648C23.0484 19.9668 23.0511 19.9654 23.0548 19.9637C23.059 19.9617 23.0689 19.9572 23.0824 19.9521C23.1075 19.9427 23.1641 19.924 23.24 19.924V20.924C23.3279 20.924 23.3965 20.9023 23.4336 20.8884C23.4531 20.8811 23.469 20.8739 23.4792 20.8691C23.4889 20.8646 23.4976 20.8602 23.4996 20.8592C23.5036 20.8572 23.5009 20.8586 23.4972 20.8603C23.493 20.8623 23.4831 20.8668 23.4696 20.8719C23.4445 20.8813 23.3879 20.9 23.312 20.9V19.9ZM23.1187 19.9389C21.6111 20.3158 20.6742 20.8242 19.3526 21.5451L19.8314 22.4229C21.1498 21.7038 21.9889 21.2522 23.3613 20.9091L23.1187 19.9389ZM19.4339 21.5097C19.3618 21.5337 19.3068 21.566 19.2755 21.5857C19.2599 21.5955 19.2457 21.605 19.2383 21.61C19.2289 21.6164 19.2264 21.618 19.2246 21.6192C19.2217 21.621 19.2379 21.6101 19.2656 21.5998C19.2965 21.5883 19.3345 21.58 19.376 21.58V22.58C19.5635 22.58 19.6965 22.5042 19.7614 22.4628C19.7761 22.4535 19.7897 22.4443 19.7964 22.4398C19.8004 22.4371 19.8028 22.4355 19.8048 22.4341C19.8068 22.4329 19.8074 22.4325 19.8073 22.4326C19.8071 22.4326 19.8017 22.4361 19.7926 22.4407C19.7832 22.4455 19.7688 22.4521 19.7501 22.4583L19.4339 21.5097ZM19.376 21.58C19.3648 21.58 19.3968 21.5791 19.4351 21.5867C19.473 21.5943 19.4974 21.6057 19.5036 21.6088L19.0564 22.5032C19.1106 22.5303 19.171 22.5537 19.2389 22.5673C19.3072 22.5809 19.3632 22.58 19.376 22.58V21.58ZM19.696 22.3334C19.815 22.1548 19.8898 21.9785 19.9432 21.8716L19.0488 21.4244C18.9582 21.6055 18.937 21.6692 18.864 21.7786L19.696 22.3334ZM19.9264 21.9024L24.6784 13.8624L23.8176 13.3536L19.0656 21.3936L19.9264 21.9024ZM24.6799 13.8599C24.7556 13.7302 24.8968 13.5009 25.0127 13.2626C25.1228 13.036 25.252 12.7208 25.252 12.408H24.252C24.252 12.4792 24.2132 12.62 24.1133 12.8254C24.0192 13.0191 23.9084 13.1978 23.8161 13.3561L24.6799 13.8599ZM25.252 12.408C25.252 12.1477 25.1566 11.8324 24.8413 11.6433L24.3268 12.5007C24.3162 12.4944 24.3031 12.4844 24.2901 12.4701C24.2771 12.4557 24.2676 12.4407 24.2611 12.427C24.2487 12.4008 24.252 12.3895 24.252 12.408H25.252ZM24.8614 11.656C24.7781 11.6005 24.688 11.5601 24.5861 11.5397C24.4989 11.5223 24.4179 11.524 24.392 11.524V12.524C24.4016 12.524 24.4073 12.524 24.4124 12.5241C24.4171 12.5241 24.4187 12.5242 24.4185 12.5242C24.4178 12.5241 24.4066 12.5236 24.3899 12.5203C24.3722 12.5167 24.3539 12.5112 24.3368 12.5038C24.3204 12.4968 24.3101 12.4903 24.3066 12.488L24.8614 11.656ZM24.392 11.524C23.9866 11.524 23.6771 11.8037 23.5072 11.9798C23.3166 12.1773 23.1397 12.4239 23.0357 12.5591L23.8283 13.1689C23.9643 12.9921 24.0874 12.8187 24.2268 12.6742C24.2937 12.6049 24.3472 12.5611 24.3864 12.5369C24.4262 12.5123 24.4251 12.524 24.392 12.524V11.524ZM23.0352 12.5598C20.8016 15.4732 18.9611 18.6475 17.3435 21.931L18.2405 22.373C19.8389 19.1285 21.6465 16.0148 23.8288 13.1682L23.0352 12.5598ZM17.3396 21.9391C17.2467 22.1366 17.1335 22.4237 17.0618 22.5855C16.9733 22.7855 16.8945 22.9295 16.8103 23.029L17.5737 23.675C17.7535 23.4625 17.8787 23.2105 17.9762 22.9905C18.0905 22.7323 18.1453 22.5754 18.2444 22.3649L17.3396 21.9391ZM16.8256 23.0118C16.7186 23.127 16.5815 23.2238 16.4027 23.3284C16.2581 23.4129 15.987 23.5545 15.799 23.672L16.329 24.52C16.525 24.3975 16.6619 24.3351 16.9073 24.1916C17.1185 24.0682 17.3534 23.913 17.5584 23.6922L16.8256 23.0118ZM15.7962 23.6738C11.5706 26.354 7.87656 29.2949 5.55939 34.0032L6.45661 34.4448C8.65144 29.9851 12.1574 27.166 16.3318 24.5182L15.7962 23.6738ZM5.56079 34.0004C4.97129 35.1794 4.716 36.4088 4.716 37.632H5.716C5.716 36.5512 5.94071 35.4766 6.45521 34.4476L5.56079 34.0004ZM4.716 37.632C4.716 38.443 4.81756 39.2553 5.04562 40.0916L6.01038 39.8284C5.80644 39.0807 5.716 38.357 5.716 37.632H4.716ZM5.0438 40.0847C5.49526 41.8374 6.63002 43.024 8.35029 43.5798L8.65772 42.6282C7.25798 42.176 6.37674 41.2506 6.0122 39.8353L5.0438 40.0847ZM8.34589 43.5783C9.11748 43.8355 9.91491 43.964 10.736 43.964V42.964C10.0211 42.964 9.33052 42.8525 8.66211 42.6297L8.34589 43.5783ZM10.736 43.964C11.1403 43.964 11.5568 43.9388 11.9801 43.8594L11.7959 42.8766C11.4512 42.9412 11.0997 42.964 10.736 42.964V43.964ZM11.969 43.8614C16.931 43.0467 20.4976 40.5737 24.0555 37.3548L23.3845 36.6132C19.8864 39.7783 16.493 42.1053 11.807 42.8746L11.969 43.8614ZM24.0566 37.3537C27.5762 34.1497 30.4963 30.4775 32.6392 26.1916L31.7448 25.7444C29.6637 29.9065 26.8238 33.4823 23.3834 36.6143L24.0566 37.3537ZM32.64 26.19C34.0351 23.3753 34.852 20.4676 34.852 17.352H33.852C33.852 20.2844 33.0849 23.0407 31.744 25.746L32.64 26.19ZM34.852 17.352C34.852 16.9038 34.8271 16.4579 34.8032 16.0283L33.8048 16.0837C33.8289 16.5181 33.852 16.9362 33.852 17.352H34.852ZM34.8027 16.0197C34.7045 14.6702 34.4824 13.3253 34.0056 12.0204L33.0664 12.3636C33.5016 13.5547 33.7115 14.8018 33.8053 16.0923L34.8027 16.0197ZM34.0084 12.028C32.9209 8.89519 29.6861 7.108 27.032 7.108V8.108C29.3219 8.108 32.1351 9.68081 33.0636 12.356L34.0084 12.028ZM27.032 7.108H26.768V8.108H27.032V7.108ZM34.5944 33.552V34.052H34.6066L34.6187 34.0514L34.5944 33.552ZM43.7384 29.016L44.0677 29.3923L44.0802 29.3813L44.092 29.3696L43.7384 29.016ZM43.6424 28.872L43.9465 29.2689L43.9727 29.2488L43.996 29.2256L43.6424 28.872ZM35.6024 32.952L35.4835 32.4663L35.4812 32.4669L35.6024 32.952ZM33.6584 30.504L33.7958 30.0232L33.4449 29.923L33.2424 30.2267L33.6584 30.504ZM34.8104 30.384L35.0533 30.8211L35.0569 30.819L34.8104 30.384ZM36.9464 29.112L36.676 28.6913L36.6657 28.6983L36.9464 29.112ZM37.7624 28.2L37.3623 27.8999L37.3556 27.9094L37.7624 28.2ZM36.5624 26.904L36.7547 27.3655L36.7706 27.3589L36.786 27.3512L36.5624 26.904ZM32.9144 30.552L33.3741 30.749L33.3773 30.7411L32.9144 30.552ZM36.7544 27.696L37.2447 27.7941L37.4101 26.9673L36.6053 27.2188L36.7544 27.696ZM34.0664 29.832L33.676 29.5197L32.6707 30.7763L34.2111 30.3106L34.0664 29.832ZM34.6187 34.0514C35.3128 34.0177 36.1418 33.7931 36.9979 33.4737C37.8615 33.1514 38.7854 32.72 39.6789 32.2481C41.4588 31.3082 43.1637 30.1833 44.0677 29.3923L43.4092 28.6397C42.5852 29.3607 40.9541 30.4438 39.2119 31.3639C38.3445 31.822 37.4609 32.2336 36.6483 32.5368C35.8281 32.8429 35.1121 33.0263 34.5702 33.0526L34.6187 34.0514ZM44.092 29.3696C44.1456 29.3159 44.1965 29.2564 44.2374 29.191C44.2689 29.1407 44.3344 29.0251 44.3344 28.872H43.3344C43.3344 28.7994 43.3514 28.7455 43.3614 28.7189C43.3724 28.6896 43.3838 28.67 43.3894 28.661C43.4003 28.6436 43.4032 28.6441 43.3849 28.6624L44.092 29.3696ZM44.3344 28.872C44.3344 28.6907 44.2104 28.3 43.7864 28.3V29.3C43.622 29.3 43.4928 29.2158 43.4194 29.118C43.3484 29.0233 43.3344 28.928 43.3344 28.872H44.3344ZM43.7864 28.3C43.5591 28.3 43.3914 28.4159 43.2889 28.5184L43.996 29.2256C43.9895 29.2321 43.9178 29.3 43.7864 29.3V28.3ZM43.3383 28.4751C42.4447 29.1598 41.0498 30.0207 39.581 30.7832C38.1082 31.5479 36.6017 32.1925 35.4835 32.4664L35.7214 33.4376C36.9551 33.1355 38.5447 32.4481 40.0418 31.6708C41.5431 30.8913 42.9921 30.0002 43.9465 29.2689L43.3383 28.4751ZM35.4812 32.4669C35.2402 32.5272 35.0179 32.548 34.7864 32.548V33.548C35.083 33.548 35.3887 33.5208 35.7237 33.4371L35.4812 32.4669ZM34.7864 32.548C34.3805 32.548 34.1251 32.4396 33.9784 32.3114C33.8387 32.1894 33.7504 32.0093 33.7504 31.752H32.7504C32.7504 32.2627 32.9382 32.7306 33.3205 33.0646C33.6958 33.3924 34.2083 33.548 34.7864 33.548V32.548ZM33.7504 31.752C33.7504 31.4739 33.8371 31.1374 34.0745 30.7813L33.2424 30.2267C32.9038 30.7346 32.7504 31.2621 32.7504 31.752H33.7504ZM33.5211 30.9848C33.7202 31.0417 33.9118 31.076 34.1144 31.076V30.076C34.0291 30.076 33.9326 30.0623 33.7958 30.0232L33.5211 30.9848ZM34.1144 31.076C34.4535 31.076 34.7764 30.9749 35.0533 30.8211L34.5676 29.9469C34.4125 30.0331 34.2554 30.076 34.1144 30.076V31.076ZM35.0569 30.819C35.7669 30.4167 36.534 29.9961 37.2272 29.5257L36.6657 28.6983C36.0149 29.1399 35.2939 29.5353 34.5639 29.949L35.0569 30.819ZM37.2168 29.5326C37.6525 29.2525 37.9526 28.7941 38.1693 28.4906L37.3556 27.9094C37.0923 28.2779 36.9124 28.5395 36.6761 28.6914L37.2168 29.5326ZM38.1624 28.5C38.3779 28.2127 38.4784 27.8648 38.4784 27.528H37.4784C37.4784 27.6712 37.435 27.8033 37.3624 27.9L38.1624 28.5ZM38.4784 27.528C38.4784 27.2188 38.3781 26.9003 38.1523 26.6535C37.9201 26.3997 37.5897 26.26 37.2104 26.26V27.26C37.3352 27.26 37.3887 27.3003 37.4145 27.3285C37.4468 27.3637 37.4784 27.4292 37.4784 27.528H38.4784ZM37.2104 26.26C36.9703 26.26 36.6706 26.2909 36.3388 26.4568L36.786 27.3512C36.9343 27.2771 37.0665 27.26 37.2104 27.26V26.26ZM36.3701 26.4425C34.5216 27.2127 33.1988 28.5334 32.4516 30.3629L33.3773 30.7411C34.022 29.1626 35.1473 28.0353 36.7547 27.3655L36.3701 26.4425ZM32.4549 30.355C32.2813 30.7601 32.1984 31.2122 32.1984 31.656H33.1984C33.1984 31.3318 33.2596 31.0159 33.374 30.749L32.4549 30.355ZM32.1984 31.656C32.1984 32.2152 32.3442 32.8097 32.7154 33.2755C33.0999 33.7582 33.6869 34.052 34.4504 34.052V33.052C33.966 33.052 33.677 32.8778 33.4975 32.6525C33.3046 32.4103 33.1984 32.0568 33.1984 31.656H32.1984ZM34.4504 34.052H34.5944V33.052H34.4504V34.052ZM36.2641 27.5979C36.2648 27.5948 36.2584 27.6235 36.2193 27.6879C36.1824 27.7487 36.1271 27.824 36.0513 27.9113C35.8996 28.0862 35.6882 28.2842 35.4412 28.4807C34.9387 28.8804 34.3535 29.2229 33.9217 29.3534L34.2111 30.3106C34.8114 30.1291 35.5102 29.7036 36.0637 29.2633C36.3447 29.0398 36.6043 28.7998 36.8066 28.5667C36.9934 28.3514 37.1877 28.0791 37.2447 27.7941L36.2641 27.5979ZM34.4569 30.1443C35.2176 29.1935 35.9054 28.4852 36.9036 28.1732L36.6053 27.2188C35.2994 27.6268 34.4513 28.5505 33.676 29.5197L34.4569 30.1443ZM43.913 39.864L44.0925 40.3307L44.0965 40.3291L43.913 39.864ZM49.913 33.648L50.3781 33.8315L50.3797 33.8275L49.913 33.648ZM50.057 30.816L49.86 30.3564L49.8465 30.3622L49.8334 30.3688L50.057 30.816ZM57.185 29.016L57.2646 29.5097L57.2744 29.5079L57.185 29.016ZM56.969 28.824L57.0319 29.32L57.0496 29.3178L57.0671 29.3143L56.969 28.824ZM49.721 30.456L49.2869 30.7041L49.4949 31.0681L49.8896 30.9267L49.721 30.456ZM46.889 29.664L46.8392 30.1616L46.8499 30.1625L46.889 29.664ZM44.441 28.776H43.941V28.7968L43.9427 28.8175L44.441 28.776ZM49.601 25.272L49.1414 25.469L49.1472 25.4825L49.1538 25.4956L49.601 25.272ZM50.897 24.72L50.4181 24.8637L50.4305 24.905L50.4498 24.9436L50.897 24.72ZM49.649 23.712L49.7197 23.217L49.6845 23.212H49.649V23.712ZM43.649 29.136L43.1639 29.2573L43.1658 29.2649L43.168 29.2724L43.649 29.136ZM49.097 30.696L49.2644 31.1671L49.7632 30.9899L49.5578 30.502L49.097 30.696ZM41.129 36.48L41.5589 36.7353L41.5606 36.7324L41.129 36.48ZM41.489 36.648L41.9189 36.9033L41.9207 36.9002L41.489 36.648ZM49.409 31.128L49.8348 30.866L49.6294 30.5322L49.2563 30.6519L49.409 31.128ZM49.577 32.736L49.1027 32.5779L49.0997 32.5868L49.097 32.5958L49.577 32.736ZM43.553 39.432L43.3784 38.9635L43.375 38.9648L43.553 39.432ZM44.0965 40.3291C46.8579 39.2398 49.3022 36.5588 50.3781 33.8315L49.4479 33.4645C48.4598 35.9692 46.2001 38.4242 43.7295 39.3989L44.0965 40.3291ZM50.3797 33.8275C50.6406 33.1492 50.725 32.5845 50.725 32.136H49.725C49.725 32.4555 49.6654 32.8988 49.4463 33.4685L50.3797 33.8275ZM50.725 32.136C50.725 31.7338 50.6622 31.4192 50.5999 31.1873C50.5702 31.077 50.5383 30.9775 50.5214 30.9217C50.4956 30.836 50.509 30.8599 50.509 30.912H49.509C49.509 31.0361 49.5494 31.162 49.5641 31.2105C49.5877 31.289 49.6098 31.356 49.6341 31.4467C49.6798 31.6168 49.725 31.8422 49.725 32.136H50.725ZM50.509 30.912C50.509 30.8944 50.5093 30.9054 50.5082 30.92C50.5067 30.938 50.5018 30.9844 50.4792 31.0407C50.4545 31.1026 50.4169 31.156 50.3726 31.1979C50.3327 31.2356 50.2963 31.2554 50.2806 31.2632L49.8334 30.3688C49.7487 30.4111 49.6191 30.4985 49.5508 30.6693C49.5222 30.7406 49.5143 30.8035 49.5113 30.8403C49.5087 30.8736 49.509 30.9056 49.509 30.912H50.509ZM50.254 31.2756C50.9658 30.9705 52.3364 30.589 53.7471 30.2491C55.1471 29.9118 56.5377 29.6269 57.2646 29.5096L57.1054 28.5224C56.3443 28.6451 54.9269 28.9362 53.5129 29.2769C52.1096 29.615 50.6602 30.0135 49.86 30.3564L50.254 31.2756ZM57.2744 29.5079C57.4159 29.4822 57.5494 29.4506 57.658 29.4048C57.7109 29.3826 57.79 29.344 57.8633 29.277C57.9412 29.2058 58.045 29.0695 58.045 28.872H57.045C57.045 28.6985 57.1368 28.5862 57.1885 28.539C57.2142 28.5155 57.2364 28.5013 57.2484 28.4943C57.2609 28.487 57.269 28.4836 57.27 28.4832C57.271 28.4828 57.2589 28.4877 57.2267 28.4961C57.1958 28.5041 57.153 28.5136 57.0956 28.5241L57.2744 29.5079ZM58.045 28.872C58.045 28.6659 57.9324 28.5217 57.8335 28.4451C57.7466 28.3779 57.6567 28.3487 57.6048 28.3349C57.4964 28.306 57.3787 28.3 57.281 28.3V29.3C57.3513 29.3 57.3656 29.306 57.3472 29.3011C57.3403 29.2993 57.2849 29.2851 57.2213 29.2359C57.1456 29.1773 57.045 29.0541 57.045 28.872H58.045ZM57.281 28.3C57.1842 28.3 57.0442 28.2991 56.8709 28.3337L57.0671 29.3143C57.1338 29.3009 57.1858 29.3 57.281 29.3V28.3ZM56.9061 28.328C55.1786 28.5469 51.2048 29.3934 49.5524 29.9853L49.8896 30.9267C51.4532 30.3666 55.3514 29.5331 57.0319 29.32L56.9061 28.328ZM50.1551 30.2079C49.8478 29.6701 49.2485 29.4604 48.7186 29.3538C48.1729 29.244 47.5142 29.2115 46.9281 29.1655L46.8499 30.1625C47.4878 30.2125 48.0531 30.24 48.5214 30.3342C49.0055 30.4316 49.2102 30.5699 49.2869 30.7041L50.1551 30.2079ZM46.9388 29.1665C46.3383 29.1064 45.7808 29.0317 45.3749 28.9116C45.1707 28.8511 45.0412 28.7892 44.9701 28.7372C44.9051 28.6898 44.9353 28.6874 44.9393 28.7345L43.9427 28.8175C43.9706 29.1526 44.1689 29.3902 44.3799 29.5445C44.5848 29.6943 44.8393 29.7959 45.0911 29.8704C45.5972 30.0203 46.2397 30.1016 46.8392 30.1615L46.9388 29.1665ZM44.941 28.776V28.728H43.941V28.776H44.941ZM44.941 28.728C44.941 28.5894 45.0492 28.314 45.3725 27.9217C45.6764 27.553 46.1063 27.1577 46.5881 26.7924C47.0686 26.4281 47.585 26.1054 48.0528 25.8763C48.5385 25.6384 48.9102 25.532 49.121 25.532V24.532C48.6718 24.532 48.1285 24.7256 47.6129 24.9782C47.0795 25.2396 46.5084 25.5979 45.9839 25.9956C45.4607 26.3923 44.9681 26.84 44.6008 27.2858C44.2528 27.708 43.941 28.2186 43.941 28.728H44.941ZM49.121 25.532C49.1567 25.532 49.181 25.5347 49.1961 25.5375C49.2111 25.5403 49.2132 25.5424 49.2071 25.5395C49.2001 25.5361 49.1863 25.528 49.1714 25.5127C49.1563 25.4972 49.1466 25.481 49.1414 25.469L50.0606 25.075C49.872 24.635 49.4433 24.532 49.121 24.532V25.532ZM49.1538 25.4956C49.3995 25.9871 49.746 26.348 50.249 26.348V25.348C50.2659 25.348 50.2695 25.3583 50.2451 25.3379C50.2095 25.3082 50.1391 25.2302 50.0482 25.0484L49.1538 25.4956ZM50.249 26.348C50.7094 26.348 51.0081 26.0035 51.1548 25.765C51.3144 25.5058 51.421 25.1762 51.421 24.888H50.421C50.421 24.9164 50.4144 24.9708 50.3923 25.0424C50.3708 25.1119 50.3396 25.1818 50.3032 25.241C50.2656 25.302 50.232 25.3364 50.2125 25.3513C50.195 25.3646 50.2089 25.348 50.249 25.348V26.348ZM51.421 24.888C51.421 24.8424 51.4304 24.6688 51.3442 24.4964L50.4498 24.9436C50.4405 24.925 50.4334 24.9061 50.4285 24.8879C50.4237 24.8704 50.4218 24.8569 50.4211 24.8502C50.4204 24.8442 50.4206 24.8429 50.4208 24.8503C50.421 24.8584 50.421 24.8685 50.421 24.888H51.421ZM51.3759 24.5763C51.2649 24.2063 50.9988 23.8931 50.7185 23.6711C50.4356 23.447 50.0791 23.2684 49.7197 23.217L49.5783 24.207C49.7229 24.2276 49.9184 24.313 50.0975 24.4549C50.2792 24.5989 50.3851 24.7537 50.4181 24.8637L51.3759 24.5763ZM49.649 23.212C49.6747 23.212 49.6904 23.2149 49.6849 23.2141C49.6791 23.2132 49.6742 23.2122 49.6514 23.2081C49.6183 23.202 49.5427 23.188 49.457 23.188V24.188C49.4433 24.188 49.4397 24.186 49.4726 24.1919C49.4828 24.1938 49.5094 24.1988 49.5328 24.2024C49.5566 24.2061 49.5993 24.212 49.649 24.212V23.212ZM49.457 23.188C48.9118 23.188 48.2467 23.4339 47.6018 23.7705C46.9391 24.1165 46.2306 24.5945 45.5802 25.1328C44.9308 25.6704 44.3243 26.2806 43.8755 26.8969C43.4373 27.4989 43.101 28.1724 43.101 28.824H44.101C44.101 28.4916 44.2867 28.0311 44.684 27.4856C45.0707 26.9544 45.6132 26.4036 46.2178 25.9032C46.8214 25.4035 47.4719 24.9665 48.0647 24.657C48.6754 24.3381 49.1622 24.188 49.457 24.188V23.188ZM43.101 28.824C43.101 28.9846 43.1382 29.1542 43.1639 29.2573L44.1341 29.0147C44.1118 28.9258 44.101 28.8554 44.101 28.824H43.101ZM43.168 29.2724C43.3509 29.9177 43.9415 30.2649 44.4964 30.4645C45.0729 30.6718 45.7714 30.7785 46.4207 30.8454C47.0556 30.9108 47.7396 30.9454 48.1857 30.9841C48.4259 31.005 48.603 31.0269 48.7194 31.0524C48.7789 31.0655 48.7985 31.0745 48.7948 31.0727C48.7918 31.0713 48.7706 31.0612 48.7427 31.0376C48.7143 31.0135 48.6683 30.9663 48.6362 30.89L49.5578 30.502C49.4731 30.3007 49.3034 30.2072 49.2236 30.1693C49.1282 30.124 49.0245 30.0955 48.9336 30.0756C48.7489 30.0351 48.516 30.009 48.2721 29.9879C47.7499 29.9426 47.1694 29.9172 46.5233 29.8506C45.8916 29.7855 45.2926 29.6882 44.8349 29.5235C44.3555 29.3511 44.1751 29.1583 44.13 28.9996L43.168 29.2724ZM48.9296 30.2249C45.9872 31.2705 42.4428 33.2427 40.6974 36.2276L41.5606 36.7324C43.1272 34.0533 46.3988 32.1855 49.2644 31.1671L48.9296 30.2249ZM40.6991 36.2247C40.2127 37.0439 39.957 37.852 39.957 38.544H40.957C40.957 38.084 41.1333 37.4521 41.5589 36.7353L40.6991 36.2247ZM39.957 38.544C39.957 39.1718 40.1644 39.7331 40.5912 40.135C41.0146 40.5337 41.5987 40.724 42.257 40.724V39.724C41.7873 39.724 41.4714 39.5903 41.2768 39.407C41.0856 39.2269 40.957 38.9482 40.957 38.544H39.957ZM42.257 40.724C42.8173 40.724 43.4321 40.5847 44.0925 40.3307L43.7335 39.3973C43.1459 39.6233 42.6567 39.724 42.257 39.724V40.724ZM41.9207 36.9002C42.5711 35.7868 43.8395 34.6622 45.3004 33.703C46.7524 32.7497 48.3378 31.9967 49.5617 31.6041L49.2563 30.6519C47.9362 31.0753 46.2696 31.8703 44.7516 32.867C43.2425 33.8578 41.8229 35.0852 41.0573 36.3958L41.9207 36.9002ZM48.9832 31.39C49.1221 31.6158 49.173 31.8354 49.173 32.064H50.173C50.173 31.6686 50.0799 31.2642 49.8348 30.866L48.9832 31.39ZM49.173 32.064C49.173 32.2484 49.1518 32.4303 49.1027 32.5779L50.0513 32.8941C50.1462 32.6097 50.173 32.3116 50.173 32.064H49.173ZM49.097 32.5958C48.726 33.8665 47.923 35.2309 46.8842 36.3999C45.8445 37.5699 44.601 38.5078 43.3784 38.9635L43.7276 39.9005C45.145 39.3722 46.5175 38.3181 47.6318 37.0641C48.747 35.8091 49.636 34.3175 50.057 32.8762L49.097 32.5958ZM43.375 38.9648C42.9124 39.141 42.4936 39.22 42.185 39.22V40.22C42.6444 40.22 43.1856 40.107 43.731 39.8992L43.375 38.9648ZM42.185 39.22C41.8539 39.22 41.6483 39.1369 41.5328 39.0377C41.4288 38.9484 41.341 38.7979 41.341 38.52H40.341C40.341 39.0341 40.5172 39.4836 40.8812 39.7963C41.2337 40.0991 41.7001 40.22 42.185 40.22V39.22ZM41.341 38.52C41.341 38.165 41.4867 37.6312 41.9189 36.9033L41.0591 36.3927C40.5793 37.2008 40.341 37.915 40.341 38.52H41.341ZM54.1696 38.4L53.7144 38.1931L53.7097 38.2036L53.7054 38.2143L54.1696 38.4ZM54.4336 37.536L53.9744 37.3382L53.9721 37.3437L54.4336 37.536ZM56.3056 33.288L55.8529 33.0758L55.8527 33.0762L56.3056 33.288ZM58.5136 32.376L58.4178 31.8853L58.4138 31.8861L58.5136 32.376ZM70.4896 29.112L70.3522 28.6311L70.3422 28.6342L70.4896 29.112ZM70.9456 28.872H71.4456V28.754L71.3928 28.6484L70.9456 28.872ZM70.4176 28.848L70.2964 28.3629L70.2805 28.3669L70.2649 28.3719L70.4176 28.848ZM57.5056 32.016V32.516H57.5329L57.56 32.513L57.5056 32.016ZM57.5776 31.008L57.9593 31.331L57.9617 31.3281L57.5776 31.008ZM65.3296 24.864V24.364H65.2591L65.1914 24.3835L65.3296 24.864ZM66.4336 25.2L66.5917 25.6743L66.6005 25.6714L66.6092 25.6682L66.4336 25.2ZM66.1216 24.12L66.0004 24.6051L66.0296 24.6124L66.0596 24.6161L66.1216 24.12ZM57.7936 29.976L57.326 29.7991L58.1537 30.3229L57.7936 29.976ZM65.0656 16.2L65.4744 16.488L65.4823 16.4767L65.4896 16.465L65.0656 16.2ZM65.9056 15.672L65.6056 15.272V15.272L65.9056 15.672ZM66.7216 14.664L67.1802 14.8634L67.1831 14.8566L67.1859 14.8497L66.7216 14.664ZM65.4016 14.112L65.0638 13.7434L65.0403 13.7649L65.0198 13.7892L65.4016 14.112ZM56.7616 30L57.2219 30.1953L57.2229 30.1928L56.7616 30ZM53.8096 37.56L53.3401 37.388L53.3376 37.3949L53.3353 37.4019L53.8096 37.56ZM53.8096 38.664L53.3454 38.8497L53.5957 39.4755L54.122 39.0544L53.8096 38.664ZM54.6248 38.6069C54.7072 38.4257 54.7528 38.2365 54.7873 38.0959C54.8253 37.9408 54.8528 37.83 54.8952 37.7283L53.9721 37.3437C53.8945 37.53 53.85 37.7192 53.816 37.8581C53.7784 38.0115 53.7521 38.1103 53.7144 38.1931L54.6248 38.6069ZM54.8928 37.7338C55.5667 36.1695 56.0667 34.979 56.7585 33.4998L55.8527 33.0762C55.1526 34.573 54.6446 35.7825 53.9744 37.3382L54.8928 37.7338ZM56.7584 33.5002C56.8247 33.3587 56.8855 33.2879 56.9379 33.2448C56.9913 33.2008 57.0657 33.1612 57.1965 33.1236C57.3347 33.084 57.5061 33.0544 57.7506 33.0157C57.9869 32.9784 58.2764 32.9346 58.6134 32.8659L58.4138 31.8861C58.1029 31.9494 57.8373 31.9896 57.5944 32.028C57.3597 32.0651 57.1276 32.103 56.9207 32.1624C56.7066 32.2238 56.4945 32.3147 56.3026 32.4725C56.1098 32.6311 55.9665 32.8333 55.8529 33.0758L56.7584 33.5002ZM58.6094 32.8667C62.697 32.0686 66.7566 30.7874 70.6371 29.5898L70.3422 28.6342C66.4466 29.8366 62.4422 31.0994 58.4178 31.8853L58.6094 32.8667ZM70.627 29.5928C70.8174 29.5384 70.9745 29.4765 71.0956 29.4059C71.1549 29.3713 71.223 29.3246 71.2829 29.2619C71.3283 29.2144 71.4456 29.0793 71.4456 28.872H70.4456C70.4456 28.7744 70.4755 28.7003 70.4983 28.6574C70.5215 28.6139 70.5463 28.5853 70.5603 28.5706C70.5873 28.5424 70.6044 28.5347 70.5917 28.5421C70.5687 28.5555 70.4979 28.5896 70.3523 28.6312L70.627 29.5928ZM71.3928 28.6484C71.2823 28.4274 71.0721 28.3581 70.999 28.3372C70.8974 28.3082 70.7935 28.3 70.7056 28.3V29.3C70.7378 29.3 70.7419 29.3038 70.7243 29.2988C70.7151 29.2961 70.6856 29.287 70.6479 29.2632C70.6107 29.2397 70.5449 29.1886 70.4984 29.0956L71.3928 28.6484ZM70.7056 28.3C70.5651 28.3 70.3908 28.3393 70.2964 28.3629L70.5389 29.3331C70.5784 29.3232 70.6207 29.3139 70.6575 29.3074C70.6758 29.3042 70.6903 29.3021 70.7008 29.3009C70.7124 29.2995 70.7131 29.3 70.7056 29.3V28.3ZM70.2649 28.3719C67.0509 29.4032 60.4688 31.1889 57.4513 31.519L57.56 32.513C60.6865 32.1711 67.3523 30.3568 70.5704 29.3241L70.2649 28.3719ZM57.5056 31.516H57.4576V32.516H57.5056V31.516ZM57.4576 31.516C57.4395 31.516 57.4997 31.5115 57.5709 31.5737C57.6508 31.6436 57.6696 31.7317 57.6696 31.776H56.6696C56.6696 31.9643 56.7365 32.1724 56.9124 32.3263C57.0795 32.4725 57.2838 32.516 57.4576 32.516V31.516ZM57.6696 31.776C57.6696 31.8122 57.662 31.7842 57.7177 31.6776C57.7664 31.5846 57.846 31.4649 57.9593 31.331L57.1959 30.685C57.0453 30.8631 56.9209 31.0434 56.8315 31.2144C56.7492 31.3718 56.6696 31.5718 56.6696 31.776H57.6696ZM57.9617 31.3281C58.5307 30.6453 60.0011 29.2593 61.5646 27.9709C62.342 27.3302 63.1311 26.7231 63.8295 26.2474C64.5438 25.7608 65.1142 25.4462 65.4679 25.3445L65.1914 24.3835C64.669 24.5338 63.9825 24.9332 63.2665 25.4209C62.5347 25.9194 61.7203 26.5468 60.9286 27.1991C59.3542 28.4967 57.8245 29.9307 57.1935 30.6879L57.9617 31.3281ZM65.3296 25.364C65.3718 25.364 65.4064 25.359 65.428 25.3551C65.4507 25.351 65.4698 25.3462 65.4829 25.3426C65.5071 25.336 65.53 25.3283 65.5357 25.3263C65.548 25.3223 65.5431 25.324 65.5354 25.3261C65.5305 25.3275 65.5193 25.3304 65.5039 25.3332C65.4897 25.3357 65.4618 25.34 65.4256 25.34V24.34C65.3834 24.34 65.3488 24.345 65.3273 24.3489C65.3046 24.353 65.2855 24.3578 65.2723 24.3614C65.2481 24.368 65.2253 24.3757 65.2195 24.3777C65.2073 24.3817 65.2121 24.38 65.2198 24.3779C65.2247 24.3765 65.2359 24.3736 65.2513 24.3708C65.2656 24.3683 65.2934 24.364 65.3296 24.364V25.364ZM65.4256 25.34C65.382 25.34 65.3621 25.3244 65.3815 25.3354C65.4084 25.3506 65.4387 25.3734 65.5126 25.4297C65.6227 25.5136 65.882 25.724 66.2416 25.724V24.724C66.2652 24.724 66.2606 24.7424 66.1186 24.6343C66.0666 24.5946 65.9738 24.5214 65.8732 24.4646C65.7652 24.4036 65.6133 24.34 65.4256 24.34V25.34ZM66.2416 25.724C66.3183 25.724 66.437 25.7259 66.5917 25.6743L66.2755 24.7257C66.2736 24.7263 66.2749 24.7258 66.2786 24.725C66.2825 24.7241 66.2859 24.7237 66.2879 24.7235C66.2893 24.7233 66.2876 24.7236 66.28 24.7238C66.2713 24.724 66.261 24.724 66.2416 24.724V25.724ZM66.6092 25.6682C67.0235 25.5128 67.2216 25.1379 67.2216 24.768H66.2216C66.2216 24.7811 66.2186 24.775 66.2285 24.7595C66.2333 24.7519 66.2397 24.7448 66.2468 24.7391C66.2538 24.7334 66.2586 24.7316 66.2581 24.7318L66.6092 25.6682ZM67.2216 24.768C67.2216 24.2447 66.8342 23.7052 66.1836 23.6239L66.0596 24.6161C66.1246 24.6243 66.1618 24.6509 66.1847 24.6778C66.2118 24.7097 66.2216 24.7456 66.2216 24.768H67.2216ZM66.2429 23.6349C66.0777 23.5936 65.9203 23.596 65.8336 23.596V24.596C65.9389 24.596 65.9736 24.5984 66.0004 24.6051L66.2429 23.6349ZM65.8336 23.596C65.0859 23.596 64.2622 23.9366 63.4718 24.3971C62.6676 24.8656 61.8336 25.4972 61.05 26.159C59.4822 27.4833 58.0667 28.972 57.4336 29.6291L58.1537 30.3229C58.7925 29.66 60.1731 28.2087 61.6953 26.923C62.4567 26.2798 63.2411 25.6889 63.9752 25.2611C64.7231 24.8254 65.3573 24.596 65.8336 24.596V23.596ZM58.2613 30.1529C58.7524 28.855 60.1832 25.9664 61.6916 23.1148C63.2006 20.2621 64.752 17.5133 65.4744 16.488L64.6569 15.912C63.8913 16.9987 62.3107 19.8059 60.8077 22.6472C59.3041 25.4896 57.8429 28.433 57.326 29.7991L58.2613 30.1529ZM65.4896 16.465C65.4625 16.5084 65.446 16.5081 65.502 16.47C65.5472 16.4392 65.6102 16.4033 65.6915 16.3605C65.7311 16.3396 65.7717 16.3189 65.8144 16.297C65.8562 16.2758 65.9006 16.2531 65.9431 16.2307C66.0214 16.1895 66.1224 16.1344 66.2056 16.072L65.6056 15.272C65.5928 15.2816 65.5559 15.3045 65.4774 15.3458C65.4415 15.3647 65.4029 15.3844 65.3598 15.4064C65.3177 15.4279 65.2717 15.4514 65.2258 15.4755C65.1361 15.5227 65.0325 15.5798 64.939 15.6435C64.8563 15.6999 64.7287 15.7956 64.6416 15.935L65.4896 16.465ZM66.2056 16.072C66.4392 15.8968 66.6314 15.7494 66.7891 15.5584C66.951 15.3625 67.0578 15.1447 67.1802 14.8634L66.2631 14.4646C66.1454 14.7353 66.0843 14.8415 66.0181 14.9216C65.9479 15.0066 65.8521 15.0872 65.6056 15.272L66.2056 16.072ZM67.1859 14.8497C67.2557 14.6752 67.2936 14.4924 67.2936 14.304H66.2936C66.2936 14.3556 66.2836 14.4128 66.2574 14.4783L67.1859 14.8497ZM67.2936 14.304C67.2936 13.6919 66.8298 13.228 66.2176 13.228V14.228C66.2418 14.228 66.2567 14.2322 66.2645 14.2353C66.2723 14.2384 66.2761 14.2416 66.2781 14.2436C66.2801 14.2456 66.2832 14.2493 66.2863 14.2571C66.2894 14.2649 66.2936 14.2799 66.2936 14.304H67.2936ZM66.2176 13.228C65.8146 13.228 65.4116 13.4246 65.0638 13.7434L65.7395 14.4806C65.9677 14.2714 66.1407 14.228 66.2176 14.228V13.228ZM65.0198 13.7892C63.9992 14.9964 62.43 17.5458 60.8226 20.4936C59.2084 23.4541 57.5324 26.8599 56.3003 29.8072L57.2229 30.1928C58.4389 27.2841 60.0989 23.9099 61.7006 20.9724C63.3093 18.0222 64.836 15.5556 65.7835 14.4348L65.0198 13.7892ZM56.3013 29.8047C55.2887 32.1915 54.2295 34.9602 53.3401 37.388L54.2791 37.732C55.1657 35.3118 56.2185 32.5605 57.2219 30.1953L56.3013 29.8047ZM53.3353 37.4019C53.2632 37.6181 53.1656 37.9268 53.1656 38.256H54.1656C54.1656 38.1052 54.212 37.9339 54.284 37.7181L53.3353 37.4019ZM53.1656 38.256V38.304H54.1656V38.256H53.1656ZM53.1656 38.304C53.1656 38.4882 53.2373 38.6374 53.2724 38.7076C53.29 38.7428 53.3149 38.7887 53.3242 38.8064C53.3379 38.8326 53.3432 38.8442 53.3454 38.8497L54.2739 38.4783C54.252 38.4238 54.2273 38.3754 54.2096 38.3416C54.1874 38.2993 54.1792 38.2852 54.1668 38.2604C54.1569 38.2405 54.1556 38.2356 54.1569 38.2395C54.1584 38.2441 54.1656 38.2676 54.1656 38.304H53.1656ZM54.122 39.0544C54.1196 39.0563 54.1258 39.0511 54.1534 39.0358C54.1666 39.0284 54.1804 39.021 54.1996 39.0107C54.2171 39.0013 54.2397 38.9892 54.2627 38.9763C54.3061 38.9517 54.372 38.9125 54.4358 38.8576C54.5014 38.8013 54.5828 38.7134 54.6339 38.5857L53.7054 38.2143C53.7325 38.1466 53.7718 38.1097 53.7842 38.0991C53.7948 38.09 53.7961 38.0913 53.7706 38.1057C53.759 38.1123 53.746 38.1193 53.7277 38.1291C53.7109 38.1381 53.6886 38.15 53.6661 38.1625C53.6224 38.1869 53.5596 38.2237 53.4973 38.2736L54.122 39.0544Z" fill="white"/>
</svg>
